<svg id="visual" viewBox="0 0 540 960" width="540" height="960" xmlns="http://www.w3.org/2000/svg" xmlns:xlink="http://www.w3.org/1999/xlink" version="1.1"><g><g transform="translate(378 695)"><path d="M64.5 -20.5C73 5 61.8 37.3 39 53.9C16.3 70.5 -18.1 71.4 -41.9 54.8C-65.7 38.2 -78.9 4.1 -70.1 -21.7C-61.4 -47.6 -30.7 -65.3 -1.3 -64.9C28.1 -64.5 56.1 -45.9 64.5 -20.5Z" stroke="#838675" fill="none" stroke-width="20"></path></g><g transform="translate(537 95)"><path d="M60.7 -20.1C69.6 7.7 61.5 40.5 40.8 55.3C20.2 70.1 -13 66.8 -36.2 49.9C-59.5 33 -72.9 2.5 -65.3 -23.6C-57.6 -49.7 -28.8 -71.3 -1.4 -70.9C25.9 -70.4 51.8 -47.8 60.7 -20.1Z" stroke="#838675" fill="none" stroke-width="20"></path></g><g transform="translate(404 436)"><path d="M47.8 -17C53.5 2.1 43.9 24.7 27.6 36C11.4 47.4 -11.6 47.5 -26.2 36.7C-40.8 26 -47 4.3 -41.3 -14.8C-35.5 -34 -17.7 -50.7 1.6 -51.2C21 -51.8 42 -36.1 47.8 -17Z" stroke="#838675" fill="none" stroke-width="20"></path></g><g transform="translate(376 923)"><path d="M34 -11.8C37.7 0.4 30 15.5 18.1 23.8C6.3 32.1 -9.7 33.7 -20.9 26.1C-32.2 18.6 -38.8 1.9 -34.5 -11C-30.3 -24 -15.1 -33.2 0 -33.2C15.1 -33.2 30.3 -24 34 -11.8Z" stroke="#838675" fill="none" stroke-width="20"></path></g><g transform="translate(166 499)"><path d="M35.4 -12.3C39.7 1.7 32.7 18.6 20.4 27.3C8.1 36.1 -9.5 36.8 -20.9 28.6C-32.3 20.3 -37.4 3.3 -32.9 -11.1C-28.3 -25.5 -14.2 -37.2 0.7 -37.4C15.5 -37.6 31.1 -26.4 35.4 -12.3Z" stroke="#838675" fill="none" stroke-width="20"></path></g><g transform="translate(143 817)"><path d="M33.8 -12.6C38.2 2.6 32.3 19.5 19.5 29.4C6.8 39.3 -13 42.2 -25.9 33.3C-38.8 24.5 -45 3.9 -39.5 -12.7C-34.1 -29.3 -17 -42 -1.2 -41.6C14.7 -41.2 29.4 -27.8 33.8 -12.6Z" stroke="#838675" fill="none" stroke-width="20"></path></g><g transform="translate(99 53)"><path d="M38.1 -11.2C43.4 3.9 37.6 23.8 25.2 32.3C12.8 40.8 -6.3 37.8 -19.6 27.9C-32.9 18 -40.6 1.2 -36.4 -12.4C-32.2 -26 -16.1 -36.4 0.2 -36.4C16.4 -36.5 32.8 -26.2 38.1 -11.2Z" stroke="#838675" fill="none" stroke-width="20"></path></g><g transform="translate(3 294)"><path d="M33 -9.9C37.5 3.1 32.3 20.2 20.5 28.9C8.7 37.7 -9.7 38.1 -21.1 29.7C-32.5 21.2 -37.1 3.8 -32.4 -9.5C-27.7 -22.8 -13.9 -32.1 0.2 -32.1C14.3 -32.2 28.5 -23 33 -9.9Z" stroke="#838675" fill="none" stroke-width="20"></path></g><g transform="translate(319 165)"><path d="M67.8 -20C77.8 8.5 68.7 45.3 45.2 62.4C21.7 79.5 -16.3 77 -41.3 58.5C-66.3 39.9 -78.4 5.2 -69.4 -22C-60.4 -49.2 -30.2 -69.1 -0.6 -68.9C29 -68.7 57.9 -48.4 67.8 -20Z" stroke="#838675" fill="none" stroke-width="20"></path></g></g></svg>