<svg id="visual" viewBox="0 0 900 200" width="900" height="200" xmlns="http://www.w3.org/2000/svg" xmlns:xlink="http://www.w3.org/1999/xlink" version="1.1"><path d="M0 85L13.7 83.3C27.3 81.7 54.7 78.3 82 75.2C109.3 72 136.7 69 163.8 63.5C191 58 218 50 245.2 50.8C272.3 51.7 299.7 61.3 327 69C354.3 76.7 381.7 82.3 409 82C436.3 81.7 463.7 75.3 491 67.7C518.3 60 545.7 51 573 50.2C600.3 49.3 627.7 56.7 654.8 59.8C682 63 709 62 736.2 59C763.3 56 790.7 51 818 54.2C845.3 57.3 872.7 68.7 886.3 74.3L900 80L900 201L886.3 201C872.7 201 845.3 201 818 201C790.7 201 763.3 201 736.2 201C709 201 682 201 654.8 201C627.7 201 600.3 201 573 201C545.7 201 518.3 201 491 201C463.7 201 436.3 201 409 201C381.7 201 354.3 201 327 201C299.7 201 272.3 201 245.2 201C218 201 191 201 163.8 201C136.7 201 109.3 201 82 201C54.7 201 27.3 201 13.7 201L0 201Z" fill="#c08189"></path><path d="M0 102L13.7 96.5C27.3 91 54.7 80 82 80.5C109.3 81 136.7 93 163.8 99.7C191 106.3 218 107.7 245.2 108.3C272.3 109 299.7 109 327 104.5C354.3 100 381.7 91 409 89.3C436.3 87.7 463.7 93.3 491 94.2C518.3 95 545.7 91 573 90.7C600.3 90.3 627.7 93.7 654.8 93.3C682 93 709 89 736.2 86.8C763.3 84.7 790.7 84.3 818 86.3C845.3 88.3 872.7 92.7 886.3 94.8L900 97L900 201L886.3 201C872.7 201 845.3 201 818 201C790.7 201 763.3 201 736.2 201C709 201 682 201 654.8 201C627.7 201 600.3 201 573 201C545.7 201 518.3 201 491 201C463.7 201 436.3 201 409 201C381.7 201 354.3 201 327 201C299.7 201 272.3 201 245.2 201C218 201 191 201 163.8 201C136.7 201 109.3 201 82 201C54.7 201 27.3 201 13.7 201L0 201Z" fill="#ac6e7c"></path><path d="M0 113L13.7 111.7C27.3 110.3 54.7 107.7 82 107.3C109.3 107 136.7 109 163.8 114C191 119 218 127 245.2 125.7C272.3 124.3 299.7 113.7 327 112.3C354.3 111 381.7 119 409 121.5C436.3 124 463.7 121 491 117.5C518.3 114 545.7 110 573 111.5C600.3 113 627.7 120 654.8 122.3C682 124.7 709 122.3 736.2 119.7C763.3 117 790.7 114 818 111.7C845.3 109.3 872.7 107.7 886.3 106.8L900 106L900 201L886.3 201C872.7 201 845.3 201 818 201C790.7 201 763.3 201 736.2 201C709 201 682 201 654.8 201C627.7 201 600.3 201 573 201C545.7 201 518.3 201 491 201C463.7 201 436.3 201 409 201C381.7 201 354.3 201 327 201C299.7 201 272.3 201 245.2 201C218 201 191 201 163.8 201C136.7 201 109.3 201 82 201C54.7 201 27.3 201 13.7 201L0 201Z" fill="#985b6f"></path><path d="M0 138L13.7 138.8C27.3 139.7 54.7 141.3 82 141.7C109.3 142 136.7 141 163.8 141.8C191 142.7 218 145.3 245.2 142.8C272.3 140.3 299.7 132.7 327 133.2C354.3 133.7 381.7 142.3 409 145.5C436.3 148.7 463.7 146.3 491 142.8C518.3 139.3 545.7 134.7 573 132.3C600.3 130 627.7 130 654.8 131.3C682 132.7 709 135.3 736.2 136.7C763.3 138 790.7 138 818 140.3C845.3 142.7 872.7 147.3 886.3 149.7L900 152L900 201L886.3 201C872.7 201 845.3 201 818 201C790.7 201 763.3 201 736.2 201C709 201 682 201 654.8 201C627.7 201 600.3 201 573 201C545.7 201 518.3 201 491 201C463.7 201 436.3 201 409 201C381.7 201 354.3 201 327 201C299.7 201 272.3 201 245.2 201C218 201 191 201 163.8 201C136.7 201 109.3 201 82 201C54.7 201 27.3 201 13.7 201L0 201Z" fill="#844963"></path><path d="M0 167L13.7 165.2C27.3 163.3 54.7 159.7 82 160.8C109.3 162 136.7 168 163.8 169.3C191 170.7 218 167.3 245.2 167C272.3 166.7 299.7 169.3 327 167.5C354.3 165.7 381.7 159.3 409 159.7C436.3 160 463.7 167 491 167.3C518.3 167.7 545.7 161.3 573 158.8C600.3 156.3 627.7 157.7 654.8 159.8C682 162 709 165 736.2 164.2C763.3 163.3 790.7 158.7 818 157.5C845.3 156.3 872.7 158.7 886.3 159.8L900 161L900 201L886.3 201C872.7 201 845.3 201 818 201C790.7 201 763.3 201 736.2 201C709 201 682 201 654.8 201C627.7 201 600.3 201 573 201C545.7 201 518.3 201 491 201C463.7 201 436.3 201 409 201C381.7 201 354.3 201 327 201C299.7 201 272.3 201 245.2 201C218 201 191 201 163.8 201C136.7 201 109.3 201 82 201C54.7 201 27.3 201 13.7 201L0 201Z" fill="#6f3857"></path></svg>