<svg id="visual" viewBox="0 0 900 250" width="900" height="250" xmlns="http://www.w3.org/2000/svg" xmlns:xlink="http://www.w3.org/1999/xlink" version="1.1"><path d="M0 174L21.5 166.3C43 158.7 86 143.3 128.8 142.5C171.7 141.7 214.3 155.3 257.2 162C300 168.7 343 168.3 385.8 155.7C428.7 143 471.3 118 514.2 114C557 110 600 127 642.8 128.7C685.7 130.3 728.3 116.7 771.2 120.8C814 125 857 147 878.5 158L900 169L900 251L878.5 251C857 251 814 251 771.2 251C728.3 251 685.7 251 642.8 251C600 251 557 251 514.2 251C471.3 251 428.7 251 385.8 251C343 251 300 251 257.2 251C214.3 251 171.7 251 128.8 251C86 251 43 251 21.5 251L0 251Z" fill="#2f3451" stroke-linecap="round" stroke-linejoin="miter"></path></svg>