<svg id="visual" viewBox="0 0 900 200" width="900" height="200" xmlns="http://www.w3.org/2000/svg" xmlns:xlink="http://www.w3.org/1999/xlink" version="1.1"><path d="M0 114L13.7 114.8C27.3 115.7 54.7 117.3 82 118.3C109.3 119.3 136.7 119.7 163.8 124C191 128.3 218 136.7 245.2 139.2C272.3 141.7 299.7 138.3 327 137C354.3 135.7 381.7 136.3 409 139.8C436.3 143.3 463.7 149.7 491 151.8C518.3 154 545.7 152 573 146.7C600.3 141.3 627.7 132.7 654.8 130.3C682 128 709 132 736.2 130.7C763.3 129.3 790.7 122.7 818 123.3C845.3 124 872.7 132 886.3 136L900 140L900 0L886.3 0C872.7 0 845.3 0 818 0C790.7 0 763.3 0 736.2 0C709 0 682 0 654.8 0C627.7 0 600.3 0 573 0C545.7 0 518.3 0 491 0C463.7 0 436.3 0 409 0C381.7 0 354.3 0 327 0C299.7 0 272.3 0 245.2 0C218 0 191 0 163.8 0C136.7 0 109.3 0 82 0C54.7 0 27.3 0 13.7 0L0 0Z" fill="#c08189"></path><path d="M0 129L13.7 123.2C27.3 117.3 54.7 105.7 82 98.2C109.3 90.7 136.7 87.3 163.8 93.2C191 99 218 114 245.2 118.3C272.3 122.7 299.7 116.3 327 110C354.3 103.7 381.7 97.3 409 94C436.3 90.7 463.7 90.3 491 90.2C518.3 90 545.7 90 573 90C600.3 90 627.7 90 654.8 95.8C682 101.7 709 113.3 736.2 114.5C763.3 115.7 790.7 106.3 818 102C845.3 97.7 872.7 98.3 886.3 98.7L900 99L900 0L886.3 0C872.7 0 845.3 0 818 0C790.7 0 763.3 0 736.2 0C709 0 682 0 654.8 0C627.7 0 600.3 0 573 0C545.7 0 518.3 0 491 0C463.7 0 436.3 0 409 0C381.7 0 354.3 0 327 0C299.7 0 272.3 0 245.2 0C218 0 191 0 163.8 0C136.7 0 109.3 0 82 0C54.7 0 27.3 0 13.7 0L0 0Z" fill="#ac6e7c"></path><path d="M0 98L13.7 94.2C27.3 90.3 54.7 82.7 82 80.5C109.3 78.3 136.7 81.7 163.8 83.2C191 84.7 218 84.3 245.2 82.5C272.3 80.7 299.7 77.3 327 75.7C354.3 74 381.7 74 409 75.3C436.3 76.7 463.7 79.3 491 81.5C518.3 83.7 545.7 85.3 573 82.8C600.3 80.3 627.7 73.7 654.8 72.5C682 71.3 709 75.7 736.2 76.2C763.3 76.7 790.7 73.3 818 71.5C845.3 69.7 872.7 69.3 886.3 69.2L900 69L900 0L886.3 0C872.7 0 845.3 0 818 0C790.7 0 763.3 0 736.2 0C709 0 682 0 654.8 0C627.7 0 600.3 0 573 0C545.7 0 518.3 0 491 0C463.7 0 436.3 0 409 0C381.7 0 354.3 0 327 0C299.7 0 272.3 0 245.2 0C218 0 191 0 163.8 0C136.7 0 109.3 0 82 0C54.7 0 27.3 0 13.7 0L0 0Z" fill="#985b6f"></path><path d="M0 41L13.7 41.5C27.3 42 54.7 43 82 43.8C109.3 44.7 136.7 45.3 163.8 48.5C191 51.7 218 57.3 245.2 60.5C272.3 63.7 299.7 64.3 327 61.5C354.3 58.7 381.7 52.3 409 50C436.3 47.7 463.7 49.3 491 51.8C518.3 54.3 545.7 57.7 573 60.7C600.3 63.7 627.7 66.3 654.8 64.8C682 63.3 709 57.7 736.2 56.2C763.3 54.7 790.7 57.3 818 58.2C845.3 59 872.7 58 886.3 57.5L900 57L900 0L886.3 0C872.7 0 845.3 0 818 0C790.7 0 763.3 0 736.2 0C709 0 682 0 654.8 0C627.7 0 600.3 0 573 0C545.7 0 518.3 0 491 0C463.7 0 436.3 0 409 0C381.7 0 354.3 0 327 0C299.7 0 272.3 0 245.2 0C218 0 191 0 163.8 0C136.7 0 109.3 0 82 0C54.7 0 27.3 0 13.7 0L0 0Z" fill="#844963"></path><path d="M0 37L13.7 34.5C27.3 32 54.7 27 82 27C109.3 27 136.7 32 163.8 33.7C191 35.3 218 33.7 245.2 31.2C272.3 28.7 299.7 25.3 327 27C354.3 28.7 381.7 35.3 409 38.8C436.3 42.3 463.7 42.7 491 40.8C518.3 39 545.7 35 573 31.8C600.3 28.7 627.7 26.3 654.8 24.8C682 23.3 709 22.7 736.2 25C763.3 27.3 790.7 32.7 818 34.3C845.3 36 872.7 34 886.3 33L900 32L900 0L886.3 0C872.7 0 845.3 0 818 0C790.7 0 763.3 0 736.2 0C709 0 682 0 654.8 0C627.7 0 600.3 0 573 0C545.7 0 518.3 0 491 0C463.7 0 436.3 0 409 0C381.7 0 354.3 0 327 0C299.7 0 272.3 0 245.2 0C218 0 191 0 163.8 0C136.7 0 109.3 0 82 0C54.7 0 27.3 0 13.7 0L0 0Z" fill="#6f3857"></path></svg>