<?xml version="1.0" encoding="utf-8"?>
<!-- Generator: Adobe Illustrator 16.0.3, SVG Export Plug-In . SVG Version: 6.00 Build 0)  -->
<!DOCTYPE svg PUBLIC "-//W3C//DTD SVG 1.1//EN" "http://www.w3.org/Graphics/SVG/1.1/DTD/svg11.dtd">
<svg version="1.1" id="Layer_1" xmlns="http://www.w3.org/2000/svg" xmlns:xlink="http://www.w3.org/1999/xlink" x="0px" y="0px"
	 width="810.113px" height="810.113px" viewBox="0 0 810.113 810.113" enable-background="new 0 0 810.113 810.113"
	 xml:space="preserve">
<path id="Selection" stroke="#000000" d="M630.838,105.765v-1.5c-30.251-21.483-71.762-44.451-107.265-55.493
	c-38.78-12.047-78.776-17.328-119.267-17.268l-15.752,0.75c-11.064,0.135-38.931,4.073-50.257,6.338
	c-74.771,14.95-144.718,54.15-196.596,109.928c-27.994,30.102-42.658,53.572-60.878,90.012L68.86,264.037
	c-1.11,2.775-3.743,9.271-4.096,11.994c-0.158,1.215-0.18,2.288,0.495,3.368c1.252,2.025,9.556,6.878,12.001,8.341
	c14.162,8.499,31.167,16.795,46.506,22.953c51.322,20.59,112.224,36.628,166.523,47.557l39.755,7.951
	c3.503,0.698,13.982,3.068,16.96,1.673c2.325-1.095,4.809-8.994,5.844-11.574l13.952-33.004
	c15.189-35.188,37.205-74.951,59.918-105.765c35.473-48.119,79.219-88.22,138.109-104.152c10.967-2.963,27.746-6.098,39.006-6.144
	h9.001l8.251-0.72C624.838,106.5,627.147,106.815,630.838,105.765z M648.841,120.767l2.131,21.753l1.62,27.004v18.002
	c-0.016,11.574-3.113,32.052-5.739,43.506c-13.164,57.436-45.868,99.682-91.774,135.454c-24.919,19.413-53.138,34.332-81.762,47.398
	l-24.004,9.962c-2.085,0.78-8.701,2.971-9.653,4.771c-0.862,1.62,0.218,3.519,0.982,4.943l6.871,11.252l31.489,47.257
	c30.319,42.403,69.715,86.674,115.831,111.99c20.801,11.424,40.828,18.535,64.51,20.905l6.75,0.623l23.254-0.69
	c3.368-0.271,9.789-0.69,12.624-2.415c1.958-1.193,4.493-4.741,5.956-6.646c4.223-5.535,7.906-11.251,11.432-17.252
	c11.724-19.953,23.186-40.184,32.247-61.509c11.289-26.562,18.595-55.478,22.705-84.012l2.866-27.754l0.682-7.501v-36.005
	c-0.022-13.66-4.013-43.326-6.908-57.008c-7.471-35.307-18.587-65.394-34.917-97.514c-16.563-32.584-35.375-54.495-59.003-81.761
	c-5.454-6.286-11.47-12.429-17.688-17.965c-2.971-2.64-4.854-5.056-9.002-4.538L648.841,120.767z M399.056,381.804
	c6.511-0.15,14.005-3.413,20.253-5.499c14.957-5.003,29.885-11.042,44.256-17.53c49.71-22.413,99.142-51.195,127.969-99.239
	c9.766-16.277,19.577-42.388,19.803-61.508c0.135-12.04,0.645-27.349-1.193-39.005c-0.397-2.521-1.252-10.569-3.098-12.009
	c-1.275-0.99-4.65-0.78-6.211-0.615c-3.353,0.36-13.765,3.226-17.252,4.373c-24.206,7.996-42.786,19.503-62.259,35.818
	c-42.651,35.735-73.811,89.675-98.451,138.957l-17.065,37.505C403.437,368.586,399.386,375.885,399.056,381.804z M50.257,330.046
	c-2.76,10.411-6.623,43.071-6.751,54.007c-0.36,31.272,1.808,64.659,8.566,95.264c15.932,72.122,57.428,144.298,112.951,192.986
	c21.896,19.203,43.596,35.646,69.76,48.734c6.016,3.009,17.38,9.962,23.253,11.064l13.044-76.511
	c9.211-49.154,19.968-97.791,32.24-146.271l16.765-59.258c2.407-7.996,8.296-23.321,8.461-30.755
	c-65.057-13.082-130.098-26.224-192.777-48.524c-19.705-7.013-39.253-15.054-57.758-24.821l-16.502-9.684
	C57.69,333.819,54.765,330.991,50.257,330.046z M381.054,427.56l-9.752,26.254L355.76,503.32
	c-16.487,54.96-30.042,110.573-42.703,166.523l-12.265,57.758l-2.783,14.252c-0.262,2.011-0.495,4.651,0.983,6.264
	c1.402,1.538,5.04,2.363,7.051,2.993l16.502,4.718c20.388,5.094,41.323,7.884,62.259,9.347l9.001,0.683h39.006
	c14.597-0.022,42.344-4.696,57.008-7.937c42.051-9.286,85.587-26.771,121.518-50.572c14.327-9.496,27.469-20.553,40.505-31.706
	c4.374-3.743,12.647-9.361,14.252-14.83h-9.001l-9.001-0.72c-9.804-0.016-19.78-1.913-29.254-4.411
	c-31.018-8.184-59.176-25.346-84.012-45.246c-35.721-28.616-66.895-64.194-94.776-100.364
	c-14.132-18.34-27.783-37.558-40.348-57.008l-10.254-15.752C387.077,433.493,385.187,429.615,381.054,427.56z"/>
</svg>
